<?xml version="1.0" encoding="UTF-8"?>
<svg width="42px" height="42px" viewBox="0 0 42 42" version="1.1" xmlns="http://www.w3.org/2000/svg" xmlns:xlink="http://www.w3.org/1999/xlink">
    <!-- Generator: Sketch 58 (84663) - https://sketch.com -->
    <title>我的待阅-黑@2x</title>
    <desc>Created with Sketch.</desc>
    <g id="配色方案" stroke="none" stroke-width="1" fill="none" fill-rule="evenodd">
        <g id="工作台首页-黑" transform="translate(-481.000000, -201.000000)">
            <g id="我的待阅-黑" transform="translate(481.000000, 201.000000)">
                <rect id="矩形" x="0" y="0" width="42" height="42"></rect>
                <g id="编组-21" transform="translate(2.000000, 5.000000)">
                    <g id="编组" transform="translate(5.000000, 0.000000)">
                        <path d="M32.7857143,0 L1.21428571,0 C0.546428571,0 0,0.54 0,1.2 L0,22.8 C0,23.46 0.546428571,24 1.21428571,24 L32.7857143,24 C33.4535714,24 34,23.46 34,22.8 L34,1.2 C34,0.54 33.4535714,0 32.7857143,0 Z" id="形状" fill="#0076F6"></path>
                        <polygon id="路径" fill="#FFFFFF" fill-rule="nonzero" points="31.5714286 4.8 17 12 2.42857143 4.8 2.42857143 2.4 17 9.6 31.5714286 2.4"></polygon>
                    </g>
                    <path d="M7.214999,34.6990371 C5.9870908,34.6990371 5.02638221,33.7383285 5.02638221,32.5104203 L5.02638221,32.0104203 L9.40361579,32.0104203 L9.40361579,32.5104203 C9.40361579,33.7383285 8.4429072,34.6990371 7.214999,34.6990371 Z M13.2567323,28.5002148 L14.929998,30.2195338 L14.929998,31.7823354 L-0.5,31.7823354 L-0.5,30.2195338 L1.17326573,28.5002148 L1.17326573,24.3129534 C1.17326573,21.6234455 2.97236074,19.275298 5.48691406,18.5106927 L5.48691406,18.3106883 C5.48691406,17.1443711 6.49072915,16.2790133 7.62502547,16.5472752 C8.43487841,16.7177706 8.94308394,17.461486 8.94308394,18.3260393 L8.94308394,18.4974785 C11.4595155,19.2760619 13.2567323,21.6252563 13.2567323,24.3129534 L13.2567323,28.5002148 Z" id="形状" stroke="#F1F1F1" fill="#2F3239" fill-rule="nonzero" stroke-linejoin="round"></path>
                </g>
            </g>
        </g>
    </g>
</svg>