<?xml version="1.0" encoding="UTF-8"?>
<svg width="42px" height="42px" viewBox="0 0 42 42" version="1.1" xmlns="http://www.w3.org/2000/svg" xmlns:xlink="http://www.w3.org/1999/xlink">
    <title>我的待办</title>
    <g id="工作台终稿" stroke="none" stroke-width="1" fill="none" fill-rule="evenodd">
        <g id="工作台" transform="translate(-372.000000, -210.000000)">
            <g id="我的待办" transform="translate(372.000000, 210.000000)">
                <rect id="矩形" x="0" y="0" width="42" height="42"></rect>
                <g id="编组-18" transform="translate(0.000000, 1.000000)" fill-rule="nonzero">
                    <g id="编组备份-4" transform="translate(10.000000, 0.000000)">
                        <path d="M29.7142857,0 L2.28571429,0 C1.02514286,0 0,1.02514286 0,2.28571429 L0,29.7142857 C0,30.9748571 1.02514286,32 2.28571429,32 L29.7142857,32 C30.9748571,32 32,30.9748571 32,29.7142857 L32,2.28571429 C32,1.02514286 30.9748571,0 29.7142857,0 Z" id="形状" fill="#D9DBEB"></path>
                        <rect id="矩形" fill="#D9DBEB" x="0" y="0" width="32" height="32" rx="2"></rect>
                        <path d="M24.9878788,14.4098477 L6.29973333,14.4098477 C5.65707472,14.4098477 5.13609697,14.9132609 5.13609697,15.5342525 C5.13609697,16.1552441 5.65707472,16.6586573 6.29973333,16.6586573 L24.9878788,16.6586573 C25.6305374,16.6586573 26.1515152,16.1552441 26.1515152,15.5342525 C26.1515152,14.9132609 25.6305374,14.4098477 24.9878788,14.4098477 Z" id="路径" fill="#A2A6C4"></path>
                        <path d="M15.9878788,22.4098477 L6.29973333,22.4098477 C5.65707472,22.4098477 5.13609697,22.9132609 5.13609697,23.5342525 C5.13609697,24.1552441 5.65707472,24.6586573 6.29973333,24.6586573 L15.9878788,24.6586573 C16.6305374,24.6586573 17.1515152,24.1552441 17.1515152,23.5342525 C17.1515152,22.9132609 16.6305374,22.4098477 15.9878788,22.4098477 Z" id="路径备份" fill="#A2A6C4"></path>
                        <path d="M24.9878788,6.91222842 L6.29973333,6.91222842 C5.65707472,6.91222842 5.13609697,7.41564161 5.13609697,8.03663324 C5.13609697,8.65762487 5.65707472,9.16103806 6.29973333,9.16103806 L24.9878788,9.16103806 C25.6305374,9.16103806 26.1515152,8.65762487 26.1515152,8.03663324 C26.1515152,7.41564161 25.6305374,6.91222842 24.9878788,6.91222842 Z" id="路径" fill="#A2A6C4"></path>
                    </g>
                    <g id="time-circle" transform="translate(0.000000, 21.000000)">
                        <rect id="矩形" fill="#000000" opacity="0" x="0" y="0" width="18" height="18"></rect>
                        <path d="M9,1.125 C4.65117188,1.125 1.125,4.65117188 1.125,9 C1.125,13.3488281 4.65117188,16.875 9,16.875 C13.3488281,16.875 16.875,13.3488281 16.875,9 C16.875,4.65117188 13.3488281,1.125 9,1.125 Z" id="形状" fill="#336DFF"></path>
                        <path d="M12.0708984,11.2253906 L9.56425781,9.41308594 L9.56425781,5.0625 C9.56425781,4.98515625 9.50097656,4.921875 9.42363281,4.921875 L8.578125,4.921875 C8.50078125,4.921875 8.4375,4.98515625 8.4375,5.0625 L8.4375,9.90351562 C8.4375,9.94921875 8.45859375,9.99140625 8.49550781,10.0177734 L11.4029297,12.1376953 C11.4662109,12.1833984 11.5541016,12.1693359 11.5998047,12.1078125 L12.1025391,11.4222656 C12.1482422,11.3572266 12.1341797,11.2693359 12.0708984,11.2253906 L12.0708984,11.2253906 Z" id="路径" fill="#FFFFFF"></path>
                    </g>
                </g>
            </g>
        </g>
    </g>
</svg>