<?xml version="1.0" encoding="UTF-8"?>
<svg width="42px" height="42px" viewBox="0 0 42 42" version="1.1" xmlns="http://www.w3.org/2000/svg" xmlns:xlink="http://www.w3.org/1999/xlink">
    <title>我的待阅</title>
    <g id="工作台终稿" stroke="none" stroke-width="1" fill="none" fill-rule="evenodd">
        <g id="工作台" transform="translate(-587.000000, -210.000000)">
            <g id="我的待阅" transform="translate(587.000000, 210.000000)">
                <rect id="矩形" x="0" y="0" width="42" height="42"></rect>
                <g id="编组-21" transform="translate(0.000000, 4.000000)" fill-rule="nonzero">
                    <g id="编组" transform="translate(7.000000, 0.000000)">
                        <path d="M32.7857143,0 L1.21428571,0 C0.546428571,0 0,0.54 0,1.2 L0,22.8 C0,23.46 0.546428571,24 1.21428571,24 L32.7857143,24 C33.4535714,24 34,23.46 34,22.8 L34,1.2 C34,0.54 33.4535714,0 32.7857143,0 Z" id="形状" fill="#D9DBEB"></path>
                        <polygon id="路径" fill="#A1A7C4" points="31.5714286 4.8 17 12 2.42857143 4.8 2.42857143 2.4 17 9.6 31.5714286 2.4"></polygon>
                    </g>
                    <path d="M7.214999,34.1990371 C8.16676483,34.1990371 8.90361579,33.4621862 8.90361579,32.5104203 L5.52638221,32.5104203 C5.52638221,33.4621862 6.26323317,34.1990371 7.214999,34.1990371 Z M12.7567323,28.703357 L12.7567323,24.3129534 C12.7567323,21.6725708 10.8839027,19.4620179 8.44308394,18.8786775 L8.44308394,18.3260393 C8.44308394,17.7119968 8.10536058,17.1593586 7.52202023,17.0365501 C6.67771184,16.8369863 5.98691406,17.4817309 5.98691406,18.3106883 L5.98691406,18.8940286 C3.54609525,19.4620179 1.67326573,21.6725708 1.67326573,24.3129534 L1.67326573,28.703357 L-2.84217094e-14,30.4226759 L-2.84217094e-14,31.2823354 L14.429998,31.2823354 L14.429998,30.4226759 L12.7567323,28.703357 Z" id="形状" fill="#336DFF"></path>
                </g>
            </g>
        </g>
    </g>
</svg>