<?xml version="1.0" encoding="UTF-8"?>
<svg width="42px" height="42px" viewBox="0 0 42 42" version="1.1" xmlns="http://www.w3.org/2000/svg" xmlns:xlink="http://www.w3.org/1999/xlink">
    <!-- Generator: Sketch 58 (84663) - https://sketch.com -->
    <title>我的待办-红@2x</title>
    <desc>Created with Sketch.</desc>
    <defs>
        <linearGradient x1="97.5180603%" y1="18.666086%" x2="1.72637648%" y2="70.9337733%" id="linearGradient-1">
            <stop stop-color="#FFA984" offset="0%"></stop>
            <stop stop-color="#F469A9" offset="100%"></stop>
        </linearGradient>
    </defs>
    <g id="配色方案" stroke="none" stroke-width="1" fill="none" fill-rule="evenodd">
        <g id="工作台首页-红" transform="translate(-266.000000, -201.000000)">
            <g id="我的待办-红" transform="translate(266.000000, 201.000000)">
                <rect id="矩形" x="0" y="0" width="42" height="42"></rect>
                <g id="编组-18" transform="translate(0.000000, 3.000000)">
                    <g id="编组备份-5" transform="translate(10.000000, 0.000000)">
                        <g id="编组备份-4">
                            <path d="M2,0 L28,0 C29.1045695,-2.02906125e-16 30,0.8954305 30,2 L30,30 C30,31.1045695 29.1045695,32 28,32 L2,32 C0.8954305,32 1.3527075e-16,31.1045695 0,30 L0,2 C-1.3527075e-16,0.8954305 0.8954305,2.02906125e-16 2,0 Z" id="矩形" fill="url(#linearGradient-1)"></path>
                            <rect id="矩形" fill="#FFFFFF" x="7" y="6" width="16" height="2" rx="1"></rect>
                            <path d="M8,14 L20,14 C20.5522847,14 21,14.4477153 21,15 C21,15.5522847 20.5522847,16 20,16 L8,16 C7.44771525,16 7,15.5522847 7,15 C7,14.4477153 7.44771525,14 8,14 Z" id="矩形备份" fill="#FFFFFF"></path>
                            <path d="M8,22 L17,22 C17.5522847,22 18,22.4477153 18,23 C18,23.5522847 17.5522847,24 17,24 L8,24 C7.44771525,24 7,23.5522847 7,23 C7,22.4477153 7.44771525,22 8,22 Z" id="矩形备份-3" fill="#FFFFFF"></path>
                        </g>
                    </g>
                    <g id="time-circle" transform="translate(0.000000, 22.000000)" fill-rule="nonzero">
                        <rect id="矩形" fill="#000000" opacity="0" x="0" y="0" width="18" height="18"></rect>
                        <path d="M10,-0.375 C14.6249705,-0.375 18.375,3.3750295 18.375,8 C18.375,12.6249705 14.6249705,16.375 10,16.375 C5.3750295,16.375 1.625,12.6249705 1.625,8 C1.625,3.3750295 5.3750295,-0.375 10,-0.375 Z" id="形状" stroke="#F1F1F1" fill="#F35A5E" stroke-linejoin="round"></path>
                        <path d="M11,5.47769715 C11,4.9254124 10.5522847,4.47769715 10,4.47769715 C9.44771525,4.47769715 9,4.9254124 9,5.47769715 L9,8.44962087 C9,8.73134004 9.11883111,8.99999082 9.32727236,9.18951109 L11.4823921,11.1490026 C11.8910222,11.5205398 12.5234727,11.4904701 12.8950099,11.08184 C13.2665472,10.6732099 13.2364774,10.0407594 12.8278474,9.66922218 L11,8.0072953 L11,5.47769715 Z" id="路径-3" fill="#FFFFFF"></path>
                    </g>
                </g>
            </g>
        </g>
    </g>
</svg>